<svg width="100" height="25" fill="none" xmlns="http://www.w3.org/2000/svg"><path d="M3.028 24.998c-.962.023-1.713-.218-2.253-.724C.258 23.77 0 23.044 0 22.102V.345h5.634V20.17l12.078-.345v4.828l-14.684.345zm14.33-12.516c0-3.609 1.15-6.586 3.45-8.93C23.11 1.184 26.184 0 30.034 0c3.85 0 6.914 1.184 9.19 3.552 2.301 2.344 3.452 5.321 3.452 8.93 0 3.632-1.15 6.632-3.451 9-2.277 2.344-5.34 3.517-9.19 3.517-3.874 0-6.961-1.173-9.262-3.517-2.277-2.368-3.415-5.368-3.415-9zm7.43-5.62c-1.198 1.356-1.796 3.23-1.796 5.62s.598 4.276 1.796 5.655c1.197 1.356 2.946 2.034 5.246 2.034 2.3 0 4.038-.678 5.212-2.034 1.197-1.38 1.796-3.264 1.796-5.655 0-2.39-.599-4.264-1.796-5.62-1.174-1.357-2.911-2.035-5.212-2.035-2.3 0-4.05.678-5.246 2.035zm20.355 5.62c0-3.678 1.174-6.678 3.521-9C51.035 1.162 54.028 0 57.644 0c3.122 0 5.774.839 7.958 2.517 2.183 1.678 3.462 3.85 3.838 6.517h-5.634c-.282-1.448-.916-2.506-1.902-3.172-.986-.69-2.406-1.035-4.26-1.035-4.578 0-6.867 2.552-6.867 7.655 0 2.667.493 4.62 1.479 5.862 1.01 1.218 2.547 1.827 4.613 1.827 1.713 0 3.051-.414 4.014-1.241.986-.85 1.479-2.08 1.479-3.69h-5.74v-4.137h12.959c1.995 0 2.993.977 2.993 2.93v10.62H66.94v-8.378l1.056-3.793h-1.408c-.024 3.954-.857 7.034-2.5 9.24-1.644 2.185-4.12 3.276-7.43 3.276-3.64 0-6.468-1.137-8.487-3.413s-3.028-5.31-3.028-9.103zm29.539 0c0-3.609 1.15-6.586 3.45-8.93C80.434 1.184 83.51 0 87.36 0c3.85 0 6.913 1.184 9.19 3.552 2.3 2.344 3.451 5.321 3.451 8.93 0 3.632-1.15 6.632-3.45 9-2.278 2.344-5.341 3.517-9.191 3.517-3.874 0-6.96-1.173-9.261-3.517-2.278-2.368-3.416-5.368-3.416-9zm7.43-5.62c-1.197 1.356-1.796 3.23-1.796 5.62s.599 4.276 1.796 5.655c1.197 1.356 2.946 2.034 5.247 2.034 2.3 0 4.037-.678 5.211-2.034 1.197-1.38 1.796-3.264 1.796-5.655 0-2.39-.599-4.264-1.796-5.62-1.174-1.357-2.91-2.035-5.211-2.035s-4.05.678-5.247 2.035z" fill="#9F9F9F"/></svg>