<svg width="32" height="32" fill="none" xmlns="http://www.w3.org/2000/svg"><path d="M15.44 6.368c.926-2.361 1.389-3.542 2.357-3.687.969-.146 1.802.84 3.467 2.812l.43.51c.474.56.71.84 1.032 1 .322.16.692.182 1.433.226l.674.039c2.607.153 3.91.229 4.362 1.081.453.852-.246 1.916-1.642 4.043l-.361.55c-.397.605-.596.907-.65 1.252-.053.345.044.694.239 1.392l.177.635c.685 2.456 1.027 3.684.338 4.356-.69.672-1.953.343-4.482-.314l-.654-.17c-.718-.186-1.077-.28-1.432-.226-.355.053-.665.247-1.286.635l-.564.353c-2.184 1.365-3.276 2.047-4.154 1.61-.878-.436-.961-1.703-1.127-4.236l-.043-.655c-.047-.72-.07-1.08-.236-1.393-.166-.312-.455-.54-1.033-.999l-.526-.417c-2.035-1.612-3.052-2.417-2.905-3.36.146-.942 1.359-1.396 3.785-2.305l.627-.235c.69-.258 1.034-.387 1.287-.633.252-.247.383-.582.647-1.253l.24-.61zM7.08 12.79c-3.25 3.105-5.38 8.284-3.972 16.543 1.257-3.471 4.701-6.346 8.774-8.063-.142-.79-.205-1.755-.271-2.773l-.052-.793a28.788 28.788 0 00-.043-.573 6.207 6.207 0 00-.115-.096c-.097-.079-.21-.169-.358-.286l-.633-.502c-.925-.732-1.786-1.414-2.377-2.042-.338-.359-.715-.832-.954-1.415z" fill="#2A1762"/><path d="M13.795 20.564l-.02-.153.075.135a4.989 4.989 0 00-.055.018z" fill="#2A1762"/></svg>