<svg width="32" height="32" fill="none" xmlns="http://www.w3.org/2000/svg"><path d="M12.045 7.95l-3.39 3.381c-.624.622-1.196 1.192-1.647 1.707a8.08 8.08 0 00-.825 1.093l-.034-.033-.125-.124a6.476 6.476 0 00-2.043-1.34l-.164-.065-.505-.2a1.02 1.02 0 01-.346-1.67C4.46 9.208 6.253 7.42 7.12 7.061a4.506 4.506 0 012.383-.304c.728.107 1.417.482 2.543 1.193zm5.79 17.801c.273.277.455.473.619.682.216.277.41.57.578.878.19.346.338.716.633 1.456.24.602 1.037.76 1.5.3l.113-.113c1.493-1.489 3.286-3.277 3.646-4.14a4.46 4.46 0 00.306-2.375c-.108-.727-.483-1.414-1.197-2.536l-3.402 3.392c-.637.636-1.221 1.218-1.75 1.675a8.015 8.015 0 01-1.046.781z" fill="#2A1762"/><path fill-rule="evenodd" clip-rule="evenodd" d="M19.262 21.836l7.795-7.772c1.123-1.12 1.684-1.68 1.98-2.391.296-.712.296-1.503.296-3.086V7.83c0-2.434 0-3.65-.759-4.407-.758-.756-1.979-.756-4.42-.756h-.759c-1.588 0-2.381 0-3.095.295-.714.294-1.276.854-2.398 1.973l-7.796 7.773c-1.312 1.308-2.125 2.119-2.44 2.902-.1.248-.15.492-.15.75 0 1.069.863 1.93 2.59 3.65l.232.232 2.718-2.759a1 1 0 011.425 1.404l-2.727 2.767.183.182c1.726 1.721 2.59 2.582 3.662 2.582.237 0 .464-.042.692-.126.805-.297 1.626-1.115 2.97-2.456zm3.662-9.128a2.595 2.595 0 01-3.662 0 2.576 2.576 0 010-3.65 2.595 2.595 0 013.662 0 2.576 2.576 0 010 3.65z" fill="#2A1762"/></svg>