<svg width="32" height="32" fill="none" xmlns="http://www.w3.org/2000/svg"><path fill-rule="evenodd" clip-rule="evenodd" d="M29.117 14.835l-.306 3.247c-.503 5.35-.755 8.025-2.332 9.638-1.577 1.613-3.94 1.613-8.666 1.613h-3.627c-4.726 0-7.09 0-8.667-1.613-1.576-1.613-1.828-4.288-2.332-9.638l-.305-3.247c-.24-2.55-.36-3.825.076-4.352.236-.285.557-.46.9-.49.634-.056 1.43.851 3.024 2.665.824.937 1.236 1.406 1.695 1.479.255.04.514-.001.75-.12.424-.213.707-.793 1.272-1.952l2.983-6.112c1.07-2.19 1.604-3.286 2.417-3.286.814 0 1.349 1.095 2.418 3.286l2.982 6.112c.566 1.16.849 1.739 1.273 1.953.235.118.495.16.75.119.46-.073.871-.542 1.695-1.48 1.593-1.813 2.39-2.72 3.024-2.664.343.03.664.205.9.49.436.527.316 1.802.076 4.352zm-11.848 2.097l-.13-.235c-.508-.909-.76-1.363-1.14-1.363-.378 0-.632.454-1.138 1.363l-.132.235c-.143.258-.215.388-.328.473-.112.085-.252.117-.531.18l-.255.057c-.984.223-1.476.334-1.593.71-.117.377.219.77.89 1.554l.173.203c.19.222.286.334.329.472.043.138.028.286 0 .584l-.027.27c-.101 1.047-.152 1.57.154 1.803.307.232.767.02 1.689-.404l.238-.11c.262-.12.393-.18.531-.18.14 0 .27.06.532.18l.238.11c.921.424 1.382.636 1.688.404.307-.233.256-.756.155-1.803l-.027-.27c-.029-.298-.043-.446 0-.584.043-.138.138-.25.329-.473l.173-.202c.671-.785 1.006-1.177.89-1.553-.118-.377-.61-.488-1.593-.71l-.255-.058c-.28-.063-.42-.095-.532-.18-.112-.085-.184-.215-.328-.473z" fill="#2A1762"/></svg>