<svg width="1003" height="1003" fill="none" xmlns="http://www.w3.org/2000/svg"><path d="M367.314 2l56.274 210.031m-287.883-76.326l153.758 153.758M2 367.313l210.031 56.274M2 634.725l210.031-56.274m-76.326 287.881l153.758-153.758m77.851 287.466l56.274-210.004m211.135 210.004l-56.274-210.004m287.882 76.296L712.573 712.574m287.467-77.849l-210.003-56.274m210.003-211.138l-210.003 56.274m76.294-287.882L712.573 289.463M634.723 2l-56.274 210.031m-80.957-100.712V238.36M303.12 165.292l63.506 110.007m-204.86 33.918l110.006 63.506M111.32 504.546h127.041m-73.07 194.371l110.007-63.505m33.919 204.861l63.505-110.007m131.824 160.452V763.707m194.373 73.04L635.413 726.74m204.862-33.919l-110.006-63.505m160.45-131.823H763.708m73.038-194.372l-110.007 63.506m-33.917-204.862l-63.506 110.006" opacity=".3" stroke="#E0E0E0" stroke-width="4" stroke-miterlimit="10" stroke-linecap="round"/></svg>