<svg width="126" height="166" viewBox="0 0 126 166" fill="none" xmlns="http://www.w3.org/2000/svg">
<path d="M125.79 69.23C125.79 112.23 86.79 155.76 62.89 155.76C38.99 155.76 0 112.24 0 69.23C0 26.22 28.16 0 62.94 0C97.72 0 125.79 26.22 125.79 69.23Z" fill="#FCC15C"/>
<path d="M62.9399 165.57C66.5199 165.57 70.6499 164.3 69.2199 162.87C67.7899 161.44 67.1499 154.68 62.9399 154.68C58.7299 154.68 58.0999 161.44 56.6699 162.87C55.2399 164.3 59.3199 165.57 62.9399 165.57Z" fill="#FCC15C"/>
<path d="M113.05 25.4199C115.829 33.9759 117.21 42.9242 117.14 51.9199C117.14 94.9199 78.1398 138.45 54.2398 138.45C39.7898 138.45 19.8298 122.55 6.2998 100.45C18.3098 131.06 44.8798 155.76 62.9398 155.76C86.8598 155.76 125.84 112.24 125.84 69.2299C125.79 51.58 121.04 36.7599 113.05 25.4199Z" fill="#FBB34A"/>
</svg>
