<svg width="226" height="299" viewBox="0 0 226 299" fill="none" xmlns="http://www.w3.org/2000/svg">
<path d="M225.24 123.95C225.24 200.95 155.44 278.89 112.62 278.89C69.8 278.89 0 200.97 0 123.95C0 46.93 50.42 0 112.62 0C174.82 0 225.24 46.94 225.24 123.95Z" fill="#96D3BD"/>
<path d="M112.751 298.5C119.161 298.5 126.541 296.23 123.981 293.67C121.421 291.11 120.281 279 112.751 279C105.221 279 104.081 291.11 101.521 293.67C98.9607 296.23 106.341 298.5 112.751 298.5Z" fill="#86C4AC"/>
<g style="mix-blend-mode:multiply" opacity="0.3">
<path d="M202.419 45.51C207.4 60.8291 209.871 76.8523 209.739 92.96C209.739 169.96 139.939 247.9 97.1193 247.9C71.2393 247.9 35.5093 219.43 11.2793 179.9C32.7793 234.66 80.3593 278.9 112.619 278.9C155.439 278.85 225.239 200.97 225.239 123.95C225.239 92.35 216.729 65.85 202.419 45.51Z" fill="#96D3BD"/>
</g>
</svg>
