<svg width="32" height="32" viewBox="0 0 32 32" fill="none" xmlns="http://www.w3.org/2000/svg">
<path d="M15.4394 6.36813C16.3657 4.00696 16.8288 2.82637 17.7974 2.68083C18.766 2.53529 19.5986 3.52118 21.2638 5.49297L21.6946 6.0031C22.1677 6.56342 22.4043 6.84358 22.726 7.00356C23.0477 7.16353 23.4181 7.1852 24.1588 7.22855L24.8332 7.26802C27.4398 7.42057 28.7431 7.49685 29.1954 8.34899C29.6477 9.20113 28.9494 10.2648 27.5528 12.3921L27.1915 12.9425C26.7947 13.547 26.5963 13.8493 26.5426 14.1944C26.489 14.5395 26.5863 14.8884 26.7809 15.5861L26.958 16.2214C27.6427 18.6768 27.985 19.9046 27.296 20.5768C26.6069 21.249 25.3428 20.9204 22.8145 20.2634L22.1604 20.0934C21.4419 19.9067 21.0827 19.8134 20.7279 19.8667C20.3731 19.92 20.0628 20.1139 19.4424 20.5018L18.8775 20.855C16.694 22.22 15.6023 22.9025 14.7241 22.4658C13.846 22.0291 13.7629 20.7624 13.5969 18.229L13.554 17.5736C13.5068 16.8536 13.4832 16.4937 13.3176 16.1815C13.1519 15.8694 12.8629 15.6404 12.2848 15.1823L11.7586 14.7653C9.72442 13.1535 8.70735 12.3476 8.85369 11.4055C9.00003 10.4634 10.2129 10.009 12.6385 9.10035L13.2661 8.86526C13.9554 8.60704 14.3 8.47793 14.5525 8.23169C14.8049 7.98546 14.9365 7.64997 15.1997 6.979L15.4394 6.36813Z" fill="#2A1762"/>
<path d="M7.07938 12.7898C3.82991 15.8945 1.69936 21.0739 3.10768 29.333C4.36473 25.8615 7.80903 22.987 11.8823 21.2699C11.7401 20.4796 11.6771 19.5146 11.6106 18.4972L11.5586 17.7037C11.5465 17.5191 11.5373 17.3791 11.5274 17.2585C11.5233 17.2085 11.5195 17.1666 11.5159 17.1313C11.485 17.1047 11.4472 17.0732 11.4009 17.0353C11.3043 16.9563 11.191 16.8665 11.0431 16.7492L10.4095 16.2472C9.48532 15.5151 8.62447 14.8332 8.03259 14.2046C7.69511 13.8461 7.31769 13.3733 7.07938 12.7898Z" fill="#2A1762"/>
<path d="M13.7949 20.5636C13.788 20.5137 13.7813 20.4628 13.7749 20.4109L13.8497 20.5462C13.8314 20.5519 13.8131 20.5577 13.7949 20.5636Z" fill="#2A1762"/>
</svg>
