<svg width="32" height="32" viewBox="0 0 32 32" fill="none" xmlns="http://www.w3.org/2000/svg">
<path fill-rule="evenodd" clip-rule="evenodd" d="M29.1169 14.8352L28.8113 18.0822C28.3078 23.4323 28.056 26.1074 26.4792 27.7204C24.9024 29.3334 22.5391 29.3334 17.8126 29.3334H14.1861C9.45957 29.3334 7.0963 29.3334 5.51947 27.7204C3.94265 26.1074 3.69089 23.4323 3.18735 18.0821L2.88176 14.8352C2.64175 12.285 2.52174 11.0099 2.958 10.4828C3.19399 10.1977 3.51489 10.023 3.858 9.99288C4.49226 9.93717 5.28879 10.844 6.88184 12.6575C7.7057 13.5954 8.11764 14.0644 8.57718 14.137C8.8318 14.1772 9.09124 14.1358 9.32636 14.0175C9.7507 13.804 10.0336 13.2242 10.5994 12.0648L13.5819 5.95323C14.6511 3.76224 15.1858 2.66675 15.9993 2.66675C16.8129 2.66675 17.3476 3.76224 18.4168 5.95322L21.3993 12.0648C21.9651 13.2242 22.248 13.804 22.6723 14.0175C22.9075 14.1358 23.1669 14.1772 23.4215 14.137C23.8811 14.0644 24.293 13.5954 25.1169 12.6575C26.7099 10.844 27.5064 9.93717 28.1407 9.99288C28.4838 10.023 28.8047 10.1977 29.0407 10.4828C29.4769 11.0099 29.3569 12.285 29.1169 14.8352ZM17.2692 16.9321L17.1381 16.697C16.6314 15.7881 16.3781 15.3336 15.9993 15.3336C15.6206 15.3336 15.3673 15.7881 14.8606 16.697L14.7295 16.9321C14.5856 17.1904 14.5136 17.3195 14.4013 17.4047C14.2891 17.49 14.1493 17.5216 13.8697 17.5848L13.6152 17.6424C12.6313 17.865 12.1394 17.9764 12.0223 18.3527C11.9053 18.7291 12.2406 19.1213 12.9114 19.9056L13.0849 20.1085C13.2755 20.3314 13.3708 20.4428 13.4137 20.5807C13.4566 20.7186 13.4422 20.8673 13.4133 21.1646L13.3871 21.4354C13.2857 22.4819 13.235 23.0051 13.5414 23.2377C13.8478 23.4703 14.3084 23.2582 15.2296 22.8341L15.4679 22.7244C15.7297 22.6038 15.8606 22.5436 15.9993 22.5436C16.1381 22.5436 16.269 22.6038 16.5308 22.7244L16.7691 22.8341C17.6903 23.2582 18.1509 23.4703 18.4573 23.2377C18.7637 23.0051 18.713 22.4819 18.6116 21.4354L18.5854 21.1646C18.5565 20.8673 18.5421 20.7186 18.585 20.5807C18.6279 20.4428 18.7232 20.3314 18.9138 20.1085L19.0873 19.9056C19.7581 19.1213 20.0934 18.7291 19.9764 18.3527C19.8593 17.9764 19.3674 17.865 18.3835 17.6424L18.129 17.5848C17.8494 17.5216 17.7096 17.49 17.5974 17.4047C17.4851 17.3195 17.4131 17.1904 17.2692 16.9321Z" fill="#2A1762"/>
</svg>
