<svg width="32" height="32" viewBox="0 0 32 32" fill="none" xmlns="http://www.w3.org/2000/svg">
<path d="M12.0451 7.95081L8.65421 11.3315C8.03093 11.9529 7.45919 12.5229 7.00767 13.0382C6.71771 13.3691 6.42795 13.7312 6.18251 14.1314L6.14947 14.0985C6.08675 14.036 6.05536 14.0047 6.02387 13.9741C5.43449 13.4022 4.74123 12.9476 3.98116 12.6344C3.94054 12.6177 3.89932 12.6014 3.81687 12.5687L3.31201 12.3686C2.62806 12.0976 2.44578 11.2171 2.96621 10.6983C4.45981 9.2092 6.25311 7.42133 7.11856 7.06224C7.88182 6.74556 8.70633 6.64019 9.50154 6.7577C10.2302 6.86538 10.9194 7.23965 12.0451 7.95081Z" fill="#2A1762"/>
<path d="M17.8349 25.751C18.1082 26.0283 18.2897 26.2242 18.4537 26.4335C18.6702 26.7097 18.8637 27.0031 19.0324 27.3106C19.2223 27.6569 19.3698 28.0268 19.6647 28.7665C19.9047 29.3687 20.7022 29.5279 21.1654 29.0661L21.2775 28.9543C22.771 27.4652 24.5643 25.6773 24.9245 24.8144C25.2421 24.0535 25.3478 23.2314 25.2299 22.4386C25.1219 21.7123 24.7466 21.0252 24.0335 19.9032L20.6313 23.2951C19.9939 23.9306 19.4095 24.5134 18.8809 24.9699C18.5642 25.2434 18.2176 25.5168 17.8349 25.751Z" fill="#2A1762"/>
<path fill-rule="evenodd" clip-rule="evenodd" d="M19.2616 21.836L27.0574 14.0636C28.1801 12.9442 28.7415 12.3846 29.0371 11.6729C29.3328 10.9612 29.3328 10.1697 29.3328 8.5867V7.83045C29.3328 5.39626 29.3328 4.17916 28.5743 3.42295C27.8159 2.66675 26.5951 2.66675 24.1536 2.66675H23.3951C21.8073 2.66675 21.0135 2.66675 20.2996 2.96155C19.5858 3.25634 19.0244 3.81601 17.9017 4.93536L10.1059 12.7078C8.79401 14.0157 7.98056 14.8267 7.66557 15.6101C7.56604 15.8576 7.51628 16.1023 7.51628 16.3591C7.51628 17.4285 8.37948 18.2891 10.1059 20.0104L10.3379 20.2417L13.0559 17.4831C13.4436 17.0897 14.0767 17.085 14.4701 17.4727C14.8635 17.8603 14.8682 18.4934 14.4806 18.8868L11.7543 21.6538L11.937 21.836C13.6634 23.5572 14.5266 24.4179 15.5993 24.4179C15.8363 24.4179 16.0631 24.3758 16.2912 24.2918C17.0955 23.9955 17.9166 23.1769 19.2616 21.836ZM22.924 12.7084C21.9127 13.7166 20.273 13.7166 19.2617 12.7084C18.2504 11.7001 18.2504 10.0653 19.2617 9.05707C20.273 8.04879 21.9127 8.04879 22.924 9.05707C23.9353 10.0653 23.9353 11.7001 22.924 12.7084Z" fill="#2A1762"/>
</svg>
