<svg viewBox="0 0 24 24"  xmlns="http://www.w3.org/2000/svg" style="display:none">

	<symbol viewBox="0 0 24 24" id="circle-arrow-next">
		<path fill-rule="evenodd" clip-rule="evenodd" d="M12.0004 2.60039C6.80891 2.60039 2.60039 6.80891 2.60039 12.0004C2.60039 17.1919 6.80891 21.4004 12.0004 21.4004C17.1919 21.4004 21.4004 17.1919 21.4004 12.0004C21.4004 6.80891 17.1919 2.60039 12.0004 2.60039ZM1.40039 12.0004C1.40039 6.14617 6.14617 1.40039 12.0004 1.40039C17.8546 1.40039 22.6004 6.14617 22.6004 12.0004C22.6004 17.8546 17.8546 22.6004 12.0004 22.6004C6.14617 22.6004 1.40039 17.8546 1.40039 12.0004Z" fill="currentColor"/>
		<path fill-rule="evenodd" clip-rule="evenodd" d="M12.5761 8.57613C12.8104 8.34181 13.1903 8.34181 13.4247 8.57613L16.4247 11.5761C16.659 11.8104 16.659 12.1903 16.4247 12.4247L13.4247 15.4247C13.1903 15.659 12.8104 15.659 12.5761 15.4247C12.3418 15.1903 12.3418 14.8104 12.5761 14.5761L14.5519 12.6004H8.00039C7.66902 12.6004 7.40039 12.3318 7.40039 12.0004C7.40039 11.669 7.66902 11.4004 8.00039 11.4004H14.5519L12.5761 9.42465C12.3418 9.19034 12.3418 8.81044 12.5761 8.57613Z" fill="currentColor"/>
	</symbol>

	<symbol viewBox="0 0 38 38" id="slider-arrow-next">
		<path fill-rule="evenodd" clip-rule="evenodd" d="M20.1588 13.8258C20.3931 13.5914 20.773 13.5914 21.0073 13.8258L25.7573 18.5758C25.9917 18.8101 25.9917 19.19 25.7573 19.4243L21.0073 24.1743C20.773 24.4086 20.3931 24.4086 20.1588 24.1743C19.9245 23.94 19.9245 23.5601 20.1588 23.3258L23.8845 19.6H12.6664C12.335 19.6 12.0664 19.3314 12.0664 19C12.0664 18.6687 12.335 18.4 12.6664 18.4H23.8845L20.1588 14.6743C19.9245 14.44 19.9245 14.0601 20.1588 13.8258Z" fill="currentColor"/>
	</symbol>

	<symbol viewBox="0 0 24 24" id="drop-down-arrow">
		<path fill-rule="evenodd" clip-rule="evenodd" d="M5.53947 12.6163C5.75161 12.3617 6.12995 12.3273 6.38452 12.5395L12.0004 17.2194L17.6163 12.5395C17.8709 12.3273 18.2492 12.3617 18.4613 12.6163C18.6735 12.8709 18.6391 13.2492 18.3845 13.4613L12.3845 18.4613C12.162 18.6468 11.8388 18.6468 11.6163 18.4613L5.6163 13.4613C5.36173 13.2492 5.32733 12.8709 5.53947 12.6163Z" fill="currentColor"/>
	</symbol>

	<symbol viewBox="0 0 24 24" id="web">
		<path fill-rule="evenodd" clip-rule="evenodd" d="M12.0004 4.60039C7.91348 4.60039 4.60039 7.91348 4.60039 12.0004C4.60039 16.0873 7.91348 19.4004 12.0004 19.4004C16.0873 19.4004 19.4004 16.0873 19.4004 12.0004C19.4004 7.91348 16.0873 4.60039 12.0004 4.60039ZM3.40039 12.0004C3.40039 7.25074 7.25074 3.40039 12.0004 3.40039C16.75 3.40039 20.6004 7.25074 20.6004 12.0004C20.6004 16.75 16.75 20.6004 12.0004 20.6004C7.25074 20.6004 3.40039 16.75 3.40039 12.0004Z" fill="currentColor"/>
		<path fill-rule="evenodd" clip-rule="evenodd" d="M12.8104 5.04134C12.4983 4.71125 12.2245 4.60039 12.0008 4.60039C11.7771 4.60039 11.5033 4.71125 11.1911 5.04134C10.8778 5.37268 10.5679 5.88435 10.2951 6.56637C9.75084 7.92709 9.40078 9.84804 9.40078 12.0004C9.40078 14.1527 9.75084 16.0737 10.2951 17.4344C10.5679 18.1164 10.8778 18.6281 11.1911 18.9594C11.5033 19.2895 11.7771 19.4004 12.0008 19.4004C12.2245 19.4004 12.4983 19.2895 12.8104 18.9594C13.1238 18.6281 13.4336 18.1164 13.7064 17.4344C14.2507 16.0737 14.6008 14.1527 14.6008 12.0004C14.6008 9.84804 14.2507 7.92709 13.7064 6.56637C13.4336 5.88435 13.1238 5.37268 12.8104 5.04134ZM14.8206 6.1207C15.4345 7.65542 15.8008 9.73446 15.8008 12.0004C15.8008 14.2663 15.4345 16.3454 14.8206 17.8801C14.5143 18.6458 14.1346 19.3057 13.6823 19.784C13.2288 20.2635 12.6607 20.6004 12.0008 20.6004C11.3408 20.6004 10.7728 20.2635 10.3193 19.784C9.86694 19.3057 9.48723 18.6458 9.18095 17.8801C8.56707 16.3454 8.20078 14.2663 8.20078 12.0004C8.20078 9.73446 8.56707 7.65542 9.18095 6.1207C9.48723 5.35501 9.86694 4.6951 10.3193 4.21681C10.7728 3.73724 11.3408 3.40039 12.0008 3.40039C12.6607 3.40039 13.2288 3.73724 13.6823 4.21681C14.1346 4.6951 14.5143 5.35501 14.8206 6.1207Z" fill="currentColor"/>
		<path fill-rule="evenodd" clip-rule="evenodd" d="M3.40039 12.0004C3.40039 11.669 3.66902 11.4004 4.00039 11.4004H20.0004C20.3318 11.4004 20.6004 11.669 20.6004 12.0004C20.6004 12.3318 20.3318 12.6004 20.0004 12.6004H4.00039C3.66902 12.6004 3.40039 12.3318 3.40039 12.0004Z" fill="currentColor"/>
	</symbol>

	<symbol viewBox="0 0 24 24" id="tel">
		<path d="M10.0376 5.31617L10.6866 6.4791C11.2723 7.52858 11.0372 8.90532 10.1147 9.8278C10.1147 9.8278 10.1147 9.8278 10.1147 9.8278C10.1146 9.82792 8.99588 10.9468 11.0245 12.9755C13.0525 15.0035 14.1714 13.8861 14.1722 13.8853C14.1722 13.8853 14.1722 13.8853 14.1722 13.8853C15.0947 12.9628 16.4714 12.7277 17.5209 13.3134L18.6838 13.9624C20.2686 14.8468 20.4557 17.0692 19.0628 18.4622C18.2258 19.2992 17.2004 19.9505 16.0669 19.9934C14.1588 20.0658 10.9183 19.5829 7.6677 16.3323C4.41713 13.0817 3.93421 9.84122 4.00655 7.93309C4.04952 6.7996 4.7008 5.77423 5.53781 4.93723C6.93076 3.54428 9.15317 3.73144 10.0376 5.31617Z" fill="currentColor"/>
	</symbol>

	<symbol viewBox="0 0 24 24" id="tel-2">
		<path fill-rule="evenodd" clip-rule="evenodd" d="M5.18424 4.58364C6.7686 2.99928 9.3995 3.14681 10.4742 5.07247L11.1232 6.2354C11.8288 7.49975 11.5313 9.11299 10.4746 10.175C10.4614 10.1906 10.3232 10.3588 10.3082 10.6654C10.2911 11.014 10.4277 11.6715 11.3781 12.6219C12.3281 13.572 12.9855 13.7087 13.3342 13.6917C13.641 13.6768 13.8093 13.5386 13.825 13.5254C14.887 12.4686 16.5002 12.1711 17.7645 12.8767L18.9275 13.5258C20.8531 14.6004 21.0007 17.2313 19.4163 18.8157C18.5382 19.6938 17.3998 20.4432 16.0858 20.4931C14.0625 20.5698 10.6788 20.0505 7.31413 16.6858C3.94942 13.3211 3.43019 9.93744 3.50689 7.91411C3.55671 6.60015 4.30613 5.46175 5.18424 4.58364ZM9.60096 5.5598C8.90681 4.31599 7.09288 4.08921 5.89134 5.29075C5.09544 6.08665 4.5423 6.99898 4.50618 7.95199C4.43821 9.74493 4.8848 12.8423 8.02124 15.9787C11.1577 19.1151 14.255 19.5617 16.048 19.4938C17.001 19.4576 17.9133 18.9045 18.7092 18.1086C19.9107 16.9071 19.684 15.0931 18.4401 14.399L17.2772 13.75C16.4451 13.2856 15.3088 13.4558 14.5258 14.2388L14.5256 14.2389C14.4788 14.2858 14.0882 14.6562 13.3828 14.6906C12.6649 14.7255 11.7488 14.4069 10.6709 13.329C9.5927 12.2508 9.27426 11.3345 9.30941 10.6165C9.34395 9.91101 9.71467 9.52069 9.76112 9.47423L9.76114 9.47421C10.5442 8.69117 10.7144 7.55483 10.25 6.72273L9.60096 5.5598Z" fill="currentColor"/>	
	</symbol>

	<symbol viewBox="0 0 24 24" id="email">
		<path fill-rule="evenodd" clip-rule="evenodd" d="M3.17157 5.17157C2 6.34315 2 8.22876 2 12C2 15.7712 2 17.6569 3.17157 18.8284C4.34315 20 6.22876 20 10 20H14C17.7712 20 19.6569 20 20.8284 18.8284C22 17.6569 22 15.7712 22 12C22 8.22876 22 6.34315 20.8284 5.17157C19.6569 4 17.7712 4 14 4H10C6.22876 4 4.34315 4 3.17157 5.17157ZM18.5762 7.51986C18.8413 7.83807 18.7983 8.31099 18.4801 8.57617L16.2837 10.4066C15.3973 11.1452 14.6789 11.7439 14.0448 12.1517C13.3843 12.5765 12.7411 12.8449 12 12.8449C11.2589 12.8449 10.6157 12.5765 9.95518 12.1517C9.32112 11.7439 8.60271 11.1452 7.71636 10.4066L5.51986 8.57617C5.20165 8.31099 5.15866 7.83807 5.42383 7.51986C5.68901 7.20165 6.16193 7.15866 6.48014 7.42383L8.63903 9.22291C9.57199 10.0004 10.2197 10.5384 10.7666 10.8901C11.2959 11.2306 11.6549 11.3449 12 11.3449C12.3451 11.3449 12.7041 11.2306 13.2334 10.8901C13.7803 10.5384 14.428 10.0004 15.361 9.22291L17.5199 7.42383C17.8381 7.15866 18.311 7.20165 18.5762 7.51986Z" fill="currentColor"/>
	</symbol>

	<symbol viewBox="0 0 32 32" id="telegram">
		<path fill-rule="evenodd" clip-rule="evenodd" d="M32 16C32 24.8365 24.8365 32 16 32C7.16344 32 0 24.8365 0 16C0 7.16344 7.16344 0 16 0C24.8365 0 32 7.16344 32 16ZM16.5733 11.8119C15.0172 12.4592 11.9069 13.7989 7.24255 15.8311C6.48513 16.1323 6.08837 16.4269 6.05225 16.7151C5.9912 17.202 6.60097 17.3937 7.43132 17.6548C7.54427 17.6904 7.66131 17.7272 7.78128 17.7661C8.59821 18.0317 9.69712 18.3424 10.2684 18.3547C10.7866 18.3659 11.365 18.1523 12.0035 17.7137C16.3616 14.772 18.6112 13.2851 18.7524 13.253C18.8521 13.2304 18.9901 13.202 19.0837 13.2851C19.1772 13.3683 19.1681 13.5257 19.1581 13.568C19.0977 13.8255 16.7041 16.0508 15.4655 17.2024C15.0793 17.5613 14.8055 17.816 14.7495 17.8741C14.624 18.0045 14.4961 18.1277 14.3733 18.2461C13.6144 18.9777 13.0452 19.5264 14.4048 20.4224C15.0583 20.8529 15.5811 21.2089 16.1027 21.5641C16.6723 21.9521 17.2404 22.3391 17.9755 22.8209C18.1628 22.9437 18.3416 23.0712 18.5159 23.1953C19.1788 23.668 19.7744 24.0925 20.5101 24.0248C20.9377 23.9855 21.3793 23.5835 21.6036 22.3845C22.1336 19.5509 23.1755 13.4113 23.4163 10.8813C23.4375 10.6596 23.4109 10.376 23.3896 10.2514C23.3683 10.1269 23.3237 9.94948 23.1619 9.81813C22.9701 9.66259 22.6743 9.62979 22.5419 9.63211C21.94 9.64272 21.0168 9.96376 16.5733 11.8119Z" fill="currentColor"/>
	</symbol>

	<symbol viewBox="0 0 32 32" id="instagram">
		<path d="M16.0006 18.8123C17.5506 18.8123 18.8194 17.5498 18.8194 15.9936C18.8194 15.3811 18.6194 14.8123 18.2881 14.3498C17.7756 13.6436 16.9444 13.1748 16.0069 13.1748C15.0694 13.1748 14.2381 13.6373 13.7256 14.3498C13.3944 14.8123 13.1944 15.3811 13.1944 15.9936C13.1881 17.5498 14.4506 18.8123 16.0006 18.8123Z" fill="currentColor"/>
		<path d="M22.15 12.5562V10.1938V9.84375H21.8L19.4375 9.85L19.45 12.5625L22.15 12.5562Z" fill="currentColor"/>
		<path d="M20.375 16.0002C20.375 18.4127 18.4125 20.3752 16 20.3752C13.5875 20.3752 11.625 18.4127 11.625 16.0002C11.625 15.4189 11.7438 14.8627 11.95 14.3564H9.5625V20.9064C9.5625 21.7502 10.25 22.4377 11.0938 22.4377H20.9062C21.75 22.4377 22.4375 21.7502 22.4375 20.9064V14.3564H20.05C20.2625 14.8627 20.375 15.4189 20.375 16.0002Z" fill="currentColor"/>
		<path d="M16 0C7.1625 0 0 7.1625 0 16C0 24.8375 7.1625 32 16 32C24.8375 32 32 24.8375 32 16C32 7.1625 24.8375 0 16 0ZM24 14.3563V20.9062C24 22.6125 22.6125 24 20.9062 24H11.0938C9.3875 24 8 22.6125 8 20.9062V14.3563V11.0875C8 9.38125 9.3875 7.99375 11.0938 7.99375H20.9062C22.6125 7.99375 24 9.38125 24 11.0875V14.3563Z" fill="currentColor"/>
	</symbol>

	<symbol viewBox="0 0 32 32" id="facebook">
		<path d="M16 2C8.29999 2 2 8.31124 2 16.0844C2 23.1125 7.12399 28.9458 13.816 30V20.1607H10.26V16.0844H13.816V12.9779C13.816 9.44979 15.902 7.51004 19.108 7.51004C20.634 7.51004 22.23 7.7771 22.23 7.7771V11.249H20.466C18.73 11.249 18.184 12.3313 18.184 13.4418V16.0844H22.076L21.446 20.1607H18.184V30C21.4829 29.4768 24.4871 27.7869 26.6538 25.2349C28.8206 22.6832 30.0075 19.4376 30 16.0844C30 8.31124 23.7 2 16 2Z" fill="currentColor"/>
	</symbol>

	<symbol viewBox="0 0 32 32" id="whatsapp">
		<path fill-rule="evenodd" clip-rule="evenodd" d="M25.3136 22.5938C24.928 23.6853 23.3952 24.5883 22.1728 24.8523C21.336 25.03 20.2448 25.1705 16.568 23.6469C12.4384 21.936 6.704 15.8416 6.704 11.7859C6.704 9.72131 7.8944 7.31719 9.976 7.31719C10.9776 7.31719 11.1984 7.33672 11.528 8.12734C11.9136 9.05883 12.8544 11.3538 12.9664 11.5891C13.4288 12.5542 12.496 13.1191 11.8192 13.9594C11.6032 14.2122 11.3584 14.4857 11.632 14.9563C11.904 15.4172 12.8448 16.9505 14.2272 18.1812C16.0128 19.7721 17.4608 20.28 17.9792 20.4961C18.3648 20.6561 18.8256 20.6189 19.1072 20.318C19.464 19.9323 19.9072 19.2923 20.3584 18.6617C20.6768 18.2104 21.0816 18.154 21.5056 18.3141C21.792 18.4133 25.432 20.1037 25.5856 20.3742C25.6992 20.5711 25.6992 21.5022 25.3136 22.5938ZM16.0032 0H15.9952C7.17439 0 0 7.17656 0 16C0 19.4987 1.12801 22.7445 3.04641 25.3773L1.05281 31.3227L7.20161 29.3578C9.73121 31.0319 12.7504 32 16.0032 32C24.824 32 32 24.8234 32 16C32 7.17656 24.824 0 16.0032 0Z" fill="currentColor"/>
	</symbol>

	<symbol viewBox="0 0 32 32" id="youtube">
		<path d="M13.8682 19.0816L19.1057 16.0066L13.8682 12.9316V19.0816Z" fill="currentColor"/>
		<path d="M16 0C7.1625 0 0 7.1625 0 16C0 24.8375 7.1625 32 16 32C24.8375 32 32 24.8375 32 16C32 7.1625 24.8375 0 16 0ZM24 18.8625C24 21.6187 21.2437 21.6187 21.2437 21.6187H10.7563C8 21.6187 8 18.8625 8 18.8625V13.1437C8 10.3875 10.7563 10.3875 10.7563 10.3875H21.2437C24 10.3875 24 13.1437 24 13.1437V18.8625Z" fill="currentColor"/>
	</symbol>

	<symbol viewBox="0 0 32 32" id="tik-tok">
		<path fill-rule="evenodd" clip-rule="evenodd" d="M16 0C7.16344 0 0 7.16344 0 16C0 24.8366 7.16344 32 16 32C24.8366 32 32 24.8366 32 16C32 7.16344 24.8366 0 16 0ZM17.9591 7.00436C17.3794 7.00523 16.7986 7.0061 16.2153 7.01501L16.2129 7.01321C16.1989 8.90927 16.1995 10.8056 16.2 12.7038C16.2003 13.8242 16.2006 14.9452 16.1979 16.0672C16.196 16.4186 16.1967 16.7694 16.1973 17.12C16.1992 18.1092 16.2011 19.0964 16.1457 20.0879L16.1451 20.0963C16.1085 20.3898 15.9986 20.66 15.8383 20.8833L15.8323 20.8941C15.4013 21.5922 14.639 22.0646 13.7608 22.091H13.7662C13.7301 22.0928 13.6941 22.0934 13.6575 22.0934C12.3879 22.0934 11.335 21.1666 11.1357 19.9384L11.1369 19.9528C11.1225 19.8328 11.1147 19.7103 11.1147 19.5867C11.1147 19.2817 11.161 18.987 11.2408 18.7307L11.2462 18.7127C11.5992 17.712 12.553 16.9953 13.6743 16.9953C13.9799 16.9953 14.2728 17.0487 14.5267 17.1405C14.5267 16.6649 14.535 16.1891 14.5433 15.7133C14.5543 15.0789 14.5653 14.4444 14.5567 13.8102L14.5904 13.815C14.2776 13.7616 13.9559 13.7333 13.6275 13.7333C10.7059 13.7333 8.30242 15.9526 8.00828 18.8213C7.99327 19.1887 8.00047 19.5639 8.01548 19.939L8.01788 19.9636C8.20997 21.7663 9.24846 23.3162 10.754 24.222L10.7299 24.2082C11.5571 24.7107 12.5278 25 13.5663 25C13.6539 25 13.741 24.9982 13.8148 24.9946H13.8232C15.6498 24.9394 17.2562 24.0071 18.2479 22.5869L18.2359 22.6055C18.8289 21.7585 19.1987 20.744 19.2605 19.6317C19.2745 18.2591 19.274 16.8835 19.2735 15.5066C19.2732 14.6944 19.2729 13.8818 19.2755 13.0691C19.6444 13.3199 20.0334 13.5457 20.4911 13.7658L20.4419 13.7453C21.4149 14.2004 22.4942 14.4651 23.642 14.4939V11.4709L23.6252 11.4697C22.4103 11.3857 21.3084 10.8911 20.4614 10.1283C19.6749 9.31565 19.1807 8.21871 19.1483 7C18.7521 7.00317 18.3559 7.00377 17.9591 7.00436Z" fill="currentColor"/>
	</symbol>

	<symbol viewBox="0 0 32 32" id="star">
		<path d="M12.2045 7.211C13.8934 4.18134 14.7378 2.6665 16.0003 2.6665C17.2628 2.6665 18.1072 4.18134 19.7961 7.211L20.233 7.99481C20.713 8.85575 20.9529 9.28622 21.3271 9.57025C21.7012 9.85427 22.1672 9.9597 23.0991 10.1706L23.9476 10.3625C27.2272 11.1046 28.867 11.4756 29.2571 12.7301C29.6472 13.9847 28.5293 15.2919 26.2935 17.9064L25.7151 18.5828C25.0798 19.3257 24.7621 19.6972 24.6192 20.1568C24.4763 20.6164 24.5243 21.112 24.6203 22.1032L24.7078 23.0057C25.0458 26.494 25.2148 28.2381 24.1935 29.0135C23.1721 29.7888 21.6368 29.0819 18.5661 27.6681L17.7717 27.3023C16.8991 26.9005 16.4628 26.6996 16.0003 26.6996C15.5379 26.6996 15.1016 26.9005 14.229 27.3023L13.4346 27.6681C10.3639 29.0819 8.82856 29.7888 7.80719 29.0135C6.78582 28.2381 6.95483 26.494 7.29285 23.0057L7.3803 22.1032C7.47636 21.112 7.52439 20.6164 7.38148 20.1568C7.23856 19.6972 6.92089 19.3257 6.28555 18.5828L5.70712 17.9064C3.47132 15.2919 2.35342 13.9847 2.74355 12.7301C3.13368 11.4756 4.77347 11.1046 8.05304 10.3625L8.90151 10.1706C9.83346 9.95971 10.2994 9.85427 10.6736 9.57025C11.0477 9.28622 11.2877 8.85575 11.7676 7.99482L12.2045 7.211Z" fill="currentColor"/>
	</symbol>

	<symbol viewBox="0 0 22 20" id="star-2">
		<path d="M10.5245 0.463526C10.6741 0.00287056 11.3259 0.00287008 11.4755 0.463525L13.5819 6.9463C13.6488 7.15232 13.8408 7.2918 14.0574 7.2918H20.8738C21.3582 7.2918 21.5596 7.9116 21.1677 8.1963L15.6531 12.2029C15.4779 12.3302 15.4046 12.5559 15.4715 12.7619L17.5779 19.2447C17.7276 19.7053 17.2003 20.0884 16.8085 19.8037L11.2939 15.7971C11.1186 15.6698 10.8814 15.6698 10.7061 15.7971L5.19153 19.8037C4.79967 20.0884 4.27243 19.7053 4.42211 19.2447L6.52849 12.7619C6.59543 12.5559 6.5221 12.3302 6.34685 12.2029L0.832272 8.1963C0.440415 7.9116 0.641802 7.2918 1.12616 7.2918H7.94256C8.15917 7.2918 8.35115 7.15232 8.41809 6.9463L10.5245 0.463526Z" fill="currentColor"/>
	</symbol>

	<symbol viewBox="0 0 28 28" id="share">
		<path fill-rule="evenodd" clip-rule="evenodd" d="M14 0C6.26801 0 0 6.26801 0 14C0 21.732 6.26801 28 14 28C21.732 28 28 21.732 28 14C28 6.26801 21.732 0 14 0ZM15.2773 8.94444C15.2773 8.1467 15.9241 7.5 16.7218 7.5C17.5195 7.5 18.1662 8.1467 18.1662 8.94444C18.1662 9.74219 17.5195 10.3889 16.7218 10.3889C15.9241 10.3889 15.2773 9.74219 15.2773 8.94444ZM16.7218 6.5C15.3718 6.5 14.2773 7.59441 14.2773 8.94444C14.2773 9.11021 14.2938 9.27213 14.3253 9.42863L10.6022 12.0348C10.5663 12.0599 10.5348 12.0889 10.5077 12.1207C10.084 11.7678 9.53899 11.5556 8.94444 11.5556C7.59441 11.5556 6.5 12.65 6.5 14C6.5 15.35 7.59441 16.4444 8.94444 16.4444C9.53899 16.4444 10.084 16.2322 10.5077 15.8793C10.5348 15.9111 10.5663 15.9401 10.6022 15.9652L14.3253 18.5714C14.2938 18.7279 14.2773 18.8898 14.2773 19.0555C14.2773 20.4055 15.3718 21.5 16.7218 21.5C18.0718 21.5 19.1662 20.4055 19.1662 19.0555C19.1662 17.7055 18.0718 16.6111 16.7218 16.6111C15.9014 16.6111 15.1753 17.0153 14.732 17.6354L11.1756 15.1459C11.158 15.1336 11.1399 15.1226 11.1214 15.1129C11.2924 14.7791 11.3889 14.4008 11.3889 14C11.3889 13.5992 11.2924 13.2209 11.1214 12.8871C11.1399 12.8774 11.158 12.8664 11.1756 12.8541L14.732 10.3646C15.1753 10.9847 15.9014 11.3889 16.7218 11.3889C18.0718 11.3889 19.1662 10.2945 19.1662 8.94444C19.1662 7.59441 18.0718 6.5 16.7218 6.5ZM8.94444 12.5556C8.1467 12.5556 7.5 13.2023 7.5 14C7.5 14.7977 8.1467 15.4444 8.94444 15.4444C9.74219 15.4444 10.3889 14.7977 10.3889 14C10.3889 13.2023 9.74219 12.5556 8.94444 12.5556ZM16.7218 17.6111C15.9241 17.6111 15.2773 18.2578 15.2773 19.0555C15.2773 19.8533 15.9241 20.5 16.7218 20.5C17.5195 20.5 18.1662 19.8533 18.1662 19.0555C18.1662 18.2578 17.5195 17.6111 16.7218 17.6111Z" fill="currentColor"/>
	</symbol>

	<symbol viewBox="0 0 28 28" id="link">
		<path fill-rule="evenodd" clip-rule="evenodd" d="M14 0C6.26801 0 0 6.26801 0 14C0 21.732 6.26801 28 14 28C21.732 28 28 21.732 28 14C28 6.26801 21.732 0 14 0ZM10.666 9.5C8.18073 9.5 6.16602 11.5147 6.16602 14C6.16602 16.4853 8.18073 18.5 10.666 18.5H11.4993C11.7755 18.5 11.9993 18.7239 11.9993 19C11.9993 19.2761 11.7755 19.5 11.4993 19.5H10.666C7.62845 19.5 5.16602 17.0376 5.16602 14C5.16602 10.9624 7.62845 8.5 10.666 8.5H11.4993C11.7755 8.5 11.9993 8.72386 11.9993 9C11.9993 9.27614 11.7755 9.5 11.4993 9.5H10.666ZM11 13.9999C11 13.7237 11.2239 13.4999 11.5 13.4999H16.5C16.7761 13.4999 17 13.7237 17 13.9999C17 14.276 16.7761 14.4999 16.5 14.4999H11.5C11.2239 14.4999 11 14.276 11 13.9999ZM16.5 8.5C16.2239 8.5 16 8.72386 16 9C16 9.27614 16.2239 9.5 16.5 9.5H17.3333C19.8186 9.5 21.8333 11.5147 21.8333 14C21.8333 16.4853 19.8186 18.5 17.3333 18.5H16.5C16.2239 18.5 16 18.7239 16 19C16 19.2761 16.2239 19.5 16.5 19.5H17.3333C20.3709 19.5 22.8333 17.0376 22.8333 14C22.8333 10.9624 20.3709 8.5 17.3333 8.5H16.5Z" fill="currentColor"/>
	</symbol>

	<symbol viewBox="0 0 32 32" id="close">
		<path fill-rule="evenodd" clip-rule="evenodd" d="M16 3.41675C9.05044 3.41675 3.41669 9.0505 3.41669 16.0001C3.41669 22.9497 9.05044 28.5834 16 28.5834C22.9496 28.5834 28.5834 22.9497 28.5834 16.0001C28.5834 9.0505 22.9496 3.41675 16 3.41675ZM1.91669 16.0001C1.91669 8.22207 8.22201 1.91675 16 1.91675C23.778 1.91675 30.0834 8.22207 30.0834 16.0001C30.0834 23.7781 23.778 30.0834 16 30.0834C8.22201 30.0834 1.91669 23.7781 1.91669 16.0001Z" fill="currentColor"/>
		<path fill-rule="evenodd" clip-rule="evenodd" d="M12.1363 12.1364C12.4292 11.8435 12.9041 11.8435 13.197 12.1364L16 14.9394L18.803 12.1364C19.0959 11.8436 19.5707 11.8436 19.8636 12.1364C20.1565 12.4293 20.1565 12.9042 19.8636 13.1971L17.0606 16.0001L19.8636 18.8031C20.1565 19.096 20.1565 19.5708 19.8636 19.8637C19.5707 20.1566 19.0958 20.1566 18.8029 19.8637L16 17.0608L13.197 19.8637C12.9041 20.1566 12.4292 20.1566 12.1363 19.8637C11.8434 19.5709 11.8434 19.096 12.1363 18.8031L14.9393 16.0001L12.1363 13.1971C11.8434 12.9042 11.8434 12.4293 12.1363 12.1364Z" fill="currentColor"/>
	</symbol>

	<symbol viewBox="0 0 38 38" id="slider-arrow-prev">
		<path fill-rule="evenodd" clip-rule="evenodd" d="M19 3.76665C27.4132 3.76665 34.2333 10.5868 34.2333 19C34.2333 27.4131 27.4132 34.2333 19 34.2333C10.5869 34.2333 3.76668 27.4131 3.76668 19C3.76668 10.5868 10.5869 3.76665 19 3.76665ZM35.4333 19C35.4333 9.9241 28.0759 2.56665 19 2.56665C9.92414 2.56665 2.56668 9.9241 2.56668 19C2.56668 28.0759 9.92414 35.4333 19 35.4333C28.0759 35.4333 35.4333 28.0759 35.4333 19Z" fill="currentColor"/>
		<path fill-rule="evenodd" clip-rule="evenodd" d="M17.8409 13.8258C17.6066 13.5914 17.2267 13.5914 16.9924 13.8258L12.2424 18.5758C12.0081 18.8101 12.0081 19.19 12.2424 19.4243L16.9924 24.1743C17.2267 24.4086 17.6066 24.4086 17.8409 24.1743C18.0753 23.94 18.0753 23.5601 17.8409 23.3258L14.1152 19.6H25.3333C25.6647 19.6 25.9333 19.3314 25.9333 19C25.9333 18.6687 25.6647 18.4 25.3333 18.4H14.1152L17.8409 14.6743C18.0753 14.44 18.0753 14.0601 17.8409 13.8258Z" fill="currentColor"/>
	</symbol>

	<symbol viewBox="0 0 38 38" id="slider-arrow-next">
		<path fill-rule="evenodd" clip-rule="evenodd" d="M19 3.76665C10.5868 3.76665 3.76665 10.5868 3.76665 19C3.76665 27.4131 10.5868 34.2333 19 34.2333C27.4131 34.2333 34.2333 27.4131 34.2333 19C34.2333 10.5868 27.4131 3.76665 19 3.76665ZM2.56665 19C2.56665 9.9241 9.9241 2.56665 19 2.56665C28.0759 2.56665 35.4333 9.9241 35.4333 19C35.4333 28.0759 28.0759 35.4333 19 35.4333C9.9241 35.4333 2.56665 28.0759 2.56665 19Z" fill="currentColor"/>
		<path fill-rule="evenodd" clip-rule="evenodd" d="M20.1591 13.8258C20.3934 13.5914 20.7733 13.5914 21.0076 13.8258L25.7576 18.5758C25.9919 18.8101 25.9919 19.19 25.7576 19.4243L21.0076 24.1743C20.7733 24.4086 20.3934 24.4086 20.1591 24.1743C19.9247 23.94 19.9247 23.5601 20.1591 23.3258L23.8848 19.6H12.6667C12.3353 19.6 12.0667 19.3314 12.0667 19C12.0667 18.6687 12.3353 18.4 12.6667 18.4H23.8848L20.1591 14.6743C19.9247 14.44 19.9247 14.0601 20.1591 13.8258Z" fill="currentColor"/>
	</symbol>

	<symbol viewBox="0 0 38 38" id="arrow-up">
		<path fill-rule="evenodd" clip-rule="evenodd" d="M13.8257 17.8409C13.5914 17.6066 13.5914 17.2267 13.8257 16.9924L18.5757 12.2424C18.81 12.0081 19.1899 12.0081 19.4243 12.2424L24.1743 16.9924C24.4086 17.2267 24.4086 17.6066 24.1743 17.8409C23.9399 18.0753 23.56 18.0753 23.3257 17.8409L19.6 14.1152L19.6 25.3333C19.6 25.6647 19.3314 25.9333 19 25.9333C18.6686 25.9333 18.4 25.6647 18.4 25.3333L18.4 14.1152L14.6743 17.8409C14.4399 18.0753 14.06 18.0753 13.8257 17.8409Z" fill="currentColor"/>
	</symbol>

	<symbol viewBox="0 0 38 38" id="arrow-down">
		<path fill-rule="evenodd" clip-rule="evenodd" d="M34.2336 19C34.2336 10.5868 27.4134 3.76665 19.0003 3.76665C10.5871 3.76665 3.76693 10.5868 3.76693 19C3.76693 27.4131 10.5871 34.2333 19.0003 34.2333C27.4134 34.2333 34.2336 27.4131 34.2336 19ZM19.0003 2.56665C28.0761 2.56665 35.4336 9.9241 35.4336 19C35.4336 28.0759 28.0761 35.4333 19.0003 35.4333C9.92438 35.4333 2.56693 28.0759 2.56693 19C2.56693 9.9241 9.92438 2.56665 19.0003 2.56665Z" fill="currentColor"/>
		<path fill-rule="evenodd" clip-rule="evenodd" d="M24.1739 20.1591C24.4082 20.3934 24.4082 20.7733 24.1739 21.0076L19.4239 25.7576C19.1896 25.9919 18.8097 25.9919 18.5753 25.7576L13.8253 21.0076C13.591 20.7733 13.591 20.3934 13.8253 20.1591C14.0597 19.9247 14.4396 19.9247 14.6739 20.1591L18.3996 23.8848L18.3996 12.6667C18.3996 12.3353 18.6682 12.0667 18.9996 12.0667C19.331 12.0667 19.5996 12.3353 19.5996 12.6667L19.5996 23.8848L23.3253 20.1591C23.5597 19.9247 23.9396 19.9247 24.1739 20.1591Z" fill="currentColor"/>
	</symbol>

	<symbol viewBox="0 0 20 20" id="separator">
		<path fill-rule="evenodd" clip-rule="evenodd" d="M7.57613 4.57564C7.34181 4.80995 7.34181 5.18985 7.57613 5.42417L12.1519 9.9999L7.57613 14.5756C7.34181 14.81 7.34181 15.1899 7.57613 15.4242C7.81044 15.6585 8.19034 15.6585 8.42466 15.4242L13.4247 10.4242C13.659 10.1899 13.659 9.80995 13.4247 9.57564L8.42465 4.57564C8.19034 4.34132 7.81044 4.34132 7.57613 4.57564Z" fill="currentColor"/>
	</symbol>

	<symbol viewBox="0 0 24 24" id="check">
		<path fill-rule="evenodd" clip-rule="evenodd" d="M1 12C1 5.925 5.925 1 12 1C18.075 1 23 5.925 23 12C23 18.075 18.075 23 12 23C5.925 23 1 18.075 1 12ZM17.28 9.28C17.4125 9.13783 17.4846 8.94978 17.4812 8.75548C17.4777 8.56118 17.399 8.37579 17.2616 8.23838C17.1242 8.10097 16.9388 8.02225 16.7445 8.01882C16.5502 8.0154 16.3622 8.08752 16.22 8.22L10.25 14.19L7.78 11.72C7.63783 11.5875 7.44978 11.5154 7.25548 11.5188C7.06118 11.5223 6.87579 11.601 6.73838 11.7384C6.60097 11.8758 6.52225 12.0612 6.51883 12.2555C6.5154 12.4498 6.58752 12.6378 6.72 12.78L9.72 15.78C9.86063 15.9205 10.0512 15.9993 10.25 15.9993C10.4488 15.9993 10.6394 15.9205 10.78 15.78L17.28 9.28Z" fill="currentColor"/>
	</symbol>

	<symbol viewBox="0 0 24 24" id="check-fill">
		<path fill-rule="evenodd" clip-rule="evenodd" d="M22 12C22 17.5228 17.5228 22 12 22C6.47715 22 2 17.5228 2 12C2 6.47715 6.47715 2 12 2C17.5228 2 22 6.47715 22 12ZM16.0303 8.96967C16.3232 9.26256 16.3232 9.73744 16.0303 10.0303L11.0303 15.0303C10.7374 15.3232 10.2626 15.3232 9.96967 15.0303L7.96967 13.0303C7.67678 12.7374 7.67678 12.2626 7.96967 11.9697C8.26256 11.6768 8.73744 11.6768 9.03033 11.9697L10.5 13.4393L12.7348 11.2045L14.9697 8.96967C15.2626 8.67678 15.7374 8.67678 16.0303 8.96967Z" fill="currentColor"/>
	</symbol>

	<symbol viewBox="0 0 24 24" id="check-transparent">
		<path d="M16.0303 10.0303C16.3232 9.73744 16.3232 9.26256 16.0303 8.96967C15.7374 8.67678 15.2626 8.67678 14.9697 8.96967L10.5 13.4393L9.03033 11.9697C8.73744 11.6768 8.26256 11.6768 7.96967 11.9697C7.67678 12.2626 7.67678 12.7374 7.96967 13.0303L9.96967 15.0303C10.2626 15.3232 10.7374 15.3232 11.0303 15.0303L16.0303 10.0303Z" fill="currentColor"/>
		<path fill-rule="evenodd" clip-rule="evenodd" d="M12 1.25C6.06294 1.25 1.25 6.06294 1.25 12C1.25 17.9371 6.06294 22.75 12 22.75C17.9371 22.75 22.75 17.9371 22.75 12C22.75 6.06294 17.9371 1.25 12 1.25ZM2.75 12C2.75 6.89137 6.89137 2.75 12 2.75C17.1086 2.75 21.25 6.89137 21.25 12C21.25 17.1086 17.1086 21.25 12 21.25C6.89137 21.25 2.75 17.1086 2.75 12Z" fill="currentColor"/>
	</symbol>
		
</svg>