<svg width="1003" height="1003" viewBox="0 0 1003 1003" fill="none" xmlns="http://www.w3.org/2000/svg">
<g opacity="0.3">
<path d="M367.314 2L423.588 212.031" stroke="#E0E0E0" stroke-width="4" stroke-miterlimit="10" stroke-linecap="round"/>
<path d="M135.705 135.705L289.463 289.463" stroke="#E0E0E0" stroke-width="4" stroke-miterlimit="10" stroke-linecap="round"/>
<path d="M2 367.313L212.031 423.587" stroke="#E0E0E0" stroke-width="4" stroke-miterlimit="10" stroke-linecap="round"/>
<path d="M2 634.725L212.031 578.451" stroke="#E0E0E0" stroke-width="4" stroke-miterlimit="10" stroke-linecap="round"/>
<path d="M135.705 866.332L289.463 712.574" stroke="#E0E0E0" stroke-width="4" stroke-miterlimit="10" stroke-linecap="round"/>
<path d="M367.314 1000.04L423.588 790.036" stroke="#E0E0E0" stroke-width="4" stroke-miterlimit="10" stroke-linecap="round"/>
<path d="M634.723 1000.04L578.449 790.036" stroke="#E0E0E0" stroke-width="4" stroke-miterlimit="10" stroke-linecap="round"/>
<path d="M866.331 866.332L712.573 712.574" stroke="#E0E0E0" stroke-width="4" stroke-miterlimit="10" stroke-linecap="round"/>
<path d="M1000.04 634.725L790.037 578.451" stroke="#E0E0E0" stroke-width="4" stroke-miterlimit="10" stroke-linecap="round"/>
<path d="M1000.04 367.313L790.037 423.587" stroke="#E0E0E0" stroke-width="4" stroke-miterlimit="10" stroke-linecap="round"/>
<path d="M866.331 135.705L712.573 289.463" stroke="#E0E0E0" stroke-width="4" stroke-miterlimit="10" stroke-linecap="round"/>
<path d="M634.723 2L578.449 212.031" stroke="#E0E0E0" stroke-width="4" stroke-miterlimit="10" stroke-linecap="round"/>
<path d="M497.492 111.319V238.36" stroke="#E0E0E0" stroke-width="4" stroke-miterlimit="10" stroke-linecap="round"/>
<path d="M303.12 165.292L366.626 275.299" stroke="#E0E0E0" stroke-width="4" stroke-miterlimit="10" stroke-linecap="round"/>
<path d="M161.766 309.217L271.772 372.723" stroke="#E0E0E0" stroke-width="4" stroke-miterlimit="10" stroke-linecap="round"/>
<path d="M111.32 504.546H238.361" stroke="#E0E0E0" stroke-width="4" stroke-miterlimit="10" stroke-linecap="round"/>
<path d="M165.291 698.917L275.298 635.412" stroke="#E0E0E0" stroke-width="4" stroke-miterlimit="10" stroke-linecap="round"/>
<path d="M309.217 840.273L372.722 730.266" stroke="#E0E0E0" stroke-width="4" stroke-miterlimit="10" stroke-linecap="round"/>
<path d="M504.546 890.718V763.707" stroke="#E0E0E0" stroke-width="4" stroke-miterlimit="10" stroke-linecap="round"/>
<path d="M698.919 836.747L635.413 726.74" stroke="#E0E0E0" stroke-width="4" stroke-miterlimit="10" stroke-linecap="round"/>
<path d="M840.275 692.821L730.269 629.316" stroke="#E0E0E0" stroke-width="4" stroke-miterlimit="10" stroke-linecap="round"/>
<path d="M890.719 497.493H763.708" stroke="#E0E0E0" stroke-width="4" stroke-miterlimit="10" stroke-linecap="round"/>
<path d="M836.746 303.121L726.739 366.627" stroke="#E0E0E0" stroke-width="4" stroke-miterlimit="10" stroke-linecap="round"/>
<path d="M692.822 161.765L629.316 271.771" stroke="#E0E0E0" stroke-width="4" stroke-miterlimit="10" stroke-linecap="round"/>
</g>
</svg>
