<svg width="214" height="283" viewBox="0 0 214 283" fill="none" xmlns="http://www.w3.org/2000/svg">
<path d="M213.17 117.26C213.17 190.13 147.17 263.87 106.61 263.87C66.05 263.87 0 190.16 0 117.26C0 44.36 47.71 0 106.56 0C165.41 0 213.17 44.41 213.17 117.26Z" fill="#FA608E"/>
<path d="M106.064 282.46C112.124 282.46 119.064 280.31 116.694 277.88C114.324 275.45 113.194 264 106.064 264C98.9342 264 97.8642 275.46 95.4442 277.88C93.0242 280.3 100.004 282.46 106.064 282.46Z" fill="#FA608E"/>
<g style="mix-blend-mode:multiply" opacity="0.3">
<path d="M191.53 43.0598C196.246 57.5583 198.586 72.7241 198.46 87.9698C198.46 160.84 132.46 234.57 91.8999 234.57C67.4099 234.57 33.5899 207.63 10.6699 170.22C31.0199 222.03 76.0299 263.9 106.56 263.9C147.08 263.9 213.17 190.16 213.17 117.26C213.17 87.3798 205.08 62.2598 191.53 43.0598Z" fill="#FA608E"/>
</g>
</svg>
