<svg width="100" height="25" viewBox="0 0 100 25" fill="none" xmlns="http://www.w3.org/2000/svg">
<path d="M3.02832 24.9985C2.06583 25.0215 1.31462 24.7801 0.774686 24.2744C0.258229 23.7687 0 23.0446 0 22.1021V0.344807H5.63408V20.1712L17.7121 19.8264V24.6537L3.02832 24.9985Z" fill="#9F9F9F"/>
<path d="M17.3575 12.482C17.3575 8.87303 18.5078 5.8962 20.8084 3.55151C23.109 1.18384 26.1843 0 30.0342 0C33.8842 0 36.9477 1.18384 39.2248 3.55151C41.5254 5.8962 42.6757 8.87303 42.6757 12.482C42.6757 16.114 41.5254 19.1138 39.2248 21.4815C36.9477 23.8262 33.8842 24.9985 30.0342 24.9985C26.1608 24.9985 23.0738 23.8262 20.7732 21.4815C18.4961 19.1138 17.3575 16.114 17.3575 12.482ZM24.7875 6.86166C23.5902 8.2179 22.9916 10.0913 22.9916 12.482C22.9916 14.8727 23.5902 16.7576 24.7875 18.1368C25.9847 19.4931 27.7336 20.1712 30.0342 20.1712C32.3348 20.1712 34.072 19.4931 35.2458 18.1368C36.443 16.7576 37.0416 14.8727 37.0416 12.482C37.0416 10.0913 36.443 8.2179 35.2458 6.86166C34.072 5.50542 32.3348 4.8273 30.0342 4.8273C27.7336 4.8273 25.9847 5.50542 24.7875 6.86166Z" fill="#9F9F9F"/>
<path d="M45.1428 12.482C45.1428 8.80407 46.3166 5.80425 48.6641 3.48255C51.0351 1.16085 54.0282 0 57.6434 0C60.7656 0 63.4184 0.83903 65.6016 2.51709C67.7848 4.19515 69.0642 6.36743 69.4398 9.03394H63.8057C63.524 7.58575 62.8902 6.52834 61.9042 5.86172C60.9182 5.1721 59.498 4.8273 57.6434 4.8273C53.0657 4.8273 50.7769 7.37887 50.7769 12.482C50.7769 15.1485 51.2699 17.1024 52.2558 18.3437C53.2653 19.562 54.8029 20.1712 56.8687 20.1712C58.5824 20.1712 59.9205 19.7574 60.883 18.9299C61.869 18.0794 62.362 16.8496 62.362 15.2405H56.6222V11.1028H69.5806C71.576 11.1028 72.5737 12.0797 72.5737 14.0336V24.6537H66.9397V16.2749L67.9961 12.482H66.5875C66.5641 16.4358 65.7307 19.5161 64.0874 21.7228C62.4441 23.9066 59.9675 24.9985 56.6575 24.9985C53.0188 24.9985 50.19 23.8606 48.1711 21.5849C46.1522 19.3092 45.1428 16.2749 45.1428 12.482Z" fill="#9F9F9F"/>
<path d="M74.6818 12.482C74.6818 8.87303 75.8321 5.8962 78.1327 3.55151C80.4333 1.18384 83.5086 0 87.3585 0C91.2085 0 94.272 1.18384 96.5491 3.55151C98.8497 5.8962 100 8.87303 100 12.482C100 16.114 98.8497 19.1138 96.5491 21.4815C94.272 23.8262 91.2085 24.9985 87.3585 24.9985C83.4851 24.9985 80.3981 23.8262 78.0975 21.4815C75.8204 19.1138 74.6818 16.114 74.6818 12.482ZM82.1118 6.86166C80.9146 8.2179 80.3159 10.0913 80.3159 12.482C80.3159 14.8727 80.9146 16.7576 82.1118 18.1368C83.309 19.4931 85.058 20.1712 87.3585 20.1712C89.6591 20.1712 91.3963 19.4931 92.5701 18.1368C93.7673 16.7576 94.3659 14.8727 94.3659 12.482C94.3659 10.0913 93.7673 8.2179 92.5701 6.86166C91.3963 5.50542 89.6591 4.8273 87.3585 4.8273C85.058 4.8273 83.309 5.50542 82.1118 6.86166Z" fill="#9F9F9F"/>
</svg>
