<svg width="100" height="100" fill="none" xmlns="http://www.w3.org/2000/svg"><path d="M57.656 35.469l3.907-29.063c-3.75-.937-7.5-3.281-11.563-3.281-4.063 0-7.813 2.344-11.719 3.438-3.906.937-8.281.78-11.718 2.812-3.438 2.031-5.625 5.938-8.438 8.75-2.813 2.813-6.719 5-8.75 8.438C7.344 30 7.5 34.374 6.406 38.28 5.47 42.188 3.125 45.938 3.125 50c0 4.063 2.344 7.813 3.438 11.719.937 3.906.78 8.281 2.812 11.718 2.031 3.438 5.938 5.626 8.75 8.438 2.813 2.813 4.844 6.719 8.438 8.75C30 92.656 34.374 92.5 38.28 93.594c3.907.937 7.657 3.281 11.719 3.281 4.063 0 7.813-2.344 11.719-3.438C65.625 92.344 70 92.5 73.437 90.47c3.438-2.031 5.626-5.938 8.438-8.75 2.813-2.813 6.719-4.844 8.75-8.438 2.031-3.437 1.875-7.812 2.969-11.719.937-3.75 3.281-7.5 3.281-11.562 0-4.063-3.281-12.656-3.281-12.656L57.656 35.47z" fill="#DDA85F"/><path d="M92.813 35c-1.563.469-3.75.313-6.094-.625-3.281-1.25-5.313-3.906-5.938-7.031-1.562.468-5.312 0-7.812-1.563-3.75-2.343-4.531-8.906-4.531-8.906-4.22-1.25-7.344-6.25-6.876-10.469C58.126 5.47 53.75 5.625 50 5.625c-3.75 0-7.188 2.188-10.625 3.125-3.594.938-7.656.781-10.781 2.656-3.125 1.875-5.157 5.469-7.657 7.969-2.656 2.656-6.25 4.531-7.968 7.656-1.875 3.125-1.719 7.188-2.656 10.782-.938 3.437-3.126 6.874-3.126 10.624 0 3.75 2.188 7.188 3.125 10.626.938 3.593.782 7.656 2.657 10.78C14.844 72.97 18.438 75 20.938 77.5c2.656 2.656 4.53 6.25 7.656 7.969 3.125 1.875 7.187 1.719 10.781 2.656 3.438.938 6.875 3.125 10.625 3.125s7.188-2.188 10.625-3.125c3.594-.938 7.656-.781 10.781-2.656 3.125-1.875 5.156-5.469 7.656-7.969 2.657-2.656 6.25-4.531 7.97-7.656 1.874-3.125 1.718-7.188 2.656-10.781.937-3.438 4.687-6.25 5.156-10 1.25-6.094-1.875-12.97-2.031-14.063z" fill="#F2CB7D"/><path d="M78.281 16.875l-2.187 2.188-2.031-2.188 2.03-2.031 2.188 2.031zm8.907 10.938l-.938 1.093-1.094-1.093 1.094-1.094.938 1.093zm-7.813-7.188l-1.094 1.094-1.094-1.094 1.094-1.094 1.094 1.094zm-9.687-9.531l-1.094 1.094-1.094-1.094L68.594 10l1.094 1.094zm19.687 20.625l-1.094 1.093-1.094-1.093 1.094-1.094 1.094 1.094zm.938-3.906l-1.094 1.093-1.094-1.093 1.094-1.094 1.094 1.093z" fill="#DDA85F"/><path d="M18.437 32.188c-1.563 2.656.781 7.5 3.906 8.906 4.531 1.875 7.188 2.187 10-2.657.938-1.718 2.188-6.25 1.719-7.343-.625-1.563-3.281-4.688-5-4.688-4.844.157-9.532 3.907-10.625 5.782z" fill="#6D4934"/><path d="M19.219 32.188c-1.094 1.874 1.719 7.5 5.469 7.03 5.156-.624 4.687-11.25 2.5-11.25-3.75 0-7.188 2.813-7.969 4.22z" fill="#A37F6A"/><path d="M70.625 61.094c2.187-.625 3.75-4.532 2.812-6.875-1.406-3.594-2.812-5.157-6.875-4.063-1.406.469-4.687 2.188-5 2.969-.469 1.25-.781 4.375.156 5.312 2.657 2.657 7.344 3.125 8.907 2.657z" fill="#6D4934"/><path d="M68.438 57.344c1.719-.47 4.375-5.782 1.563-6.094-4.844-.781-8.594 1.562-8.125 4.219.468 2.656 5.312 2.187 6.562 1.875z" fill="#A37F6A"/><path d="M38.907 69.531c-.47-1.875-3.907-3.28-6.094-2.343-3.125 1.25-4.531 2.343-3.438 5.937.313 1.25 1.875 4.063 2.657 4.219 1.093.469 3.75.625 4.53-.156 2.345-2.188 2.657-6.25 2.345-7.657z" fill="#6D4934"/><path d="M36.25 68.125c-.312-1.406-6.874.625-6.25 3.125 1.25 4.219 1.25 4.844 2.5 4.688 2.345-.625 3.907-6.72 3.75-7.813z" fill="#A37F6A"/><path d="M79.843 39.844c-1.875.468-3.28 3.906-2.343 6.093 1.25 3.126 4.218 3.594 7.5 1.876 2.812-1.407 2.968-6.407 2.187-7.344-2.344-2.344-5.937-.938-7.344-.625z" fill="#6D4934"/><path d="M79.063 41.563c-.937 1.093-1.719 5.468.625 4.843 4.219-1.25 7.188-5.468 5.313-6.093-2.344-.782-4.844 0-5.938 1.25z" fill="#A37F6A"/><path d="M35.531 25.175l3.094-3.094 3.094 3.094-3.094 3.094-3.094-3.094z" fill="#6D4934"/><path d="M22.979 52.317l3.092-3.094 3.093 3.093-3.092 3.093-3.093-3.092zm31.238 17.7l3.093-3.093 3.094 3.093-3.094 3.094-3.093-3.094zM50.06 61.39l4.199-4.2 4.198 4.2-4.198 4.198-4.199-4.199zM38.588 15.355l4.198-4.199 4.199 4.199-4.199 4.198-4.198-4.198z" fill="#DDA85F"/><path d="M64.254 72.417l3.094-3.094 3.093 3.094-3.093 3.094-3.094-3.094zm12.428-17.394l3.093-3.093 3.094 3.093-3.094 3.094-3.093-3.094zm-11.35-16.528l1.547-1.546 1.547 1.546-1.547 1.547-1.547-1.547zM21.447 59.79l1.547-1.546 1.547 1.547-1.547 1.547-1.547-1.547z" fill="#6D4934"/></svg>