<svg width="24" height="24" fill="none" xmlns="http://www.w3.org/2000/svg"><g clip-path="url(#clip0_300_1292)"><path d="M23.714 12.225c0-.984-.08-1.701-.253-2.445H12.233v4.438h6.591c-.133 1.102-.85 2.764-2.445 3.88l-.022.148 3.55 2.75.246.025c2.259-2.086 3.56-5.156 3.56-8.796z" fill="#4285F4"/><path d="M12.234 23.918c3.229 0 5.94-1.063 7.92-2.897l-3.774-2.923c-1.01.704-2.365 1.195-4.146 1.195-3.162 0-5.846-2.086-6.803-4.969l-.14.012-3.692 2.857-.048.134c1.966 3.906 6.006 6.59 10.683 6.59z" fill="#34A853"/><path d="M5.43 14.324a7.362 7.362 0 01-.399-2.365c0-.824.146-1.621.386-2.365l-.007-.159-3.738-2.903-.122.059a11.97 11.97 0 00-1.276 5.368c0 1.927.465 3.747 1.276 5.368l3.88-3.003z" fill="#FBBC05"/><path d="M12.234 4.624c2.245 0 3.76.97 4.624 1.78l3.375-3.295C18.16 1.183 15.463 0 12.234 0 7.557 0 3.517 2.684 1.551 6.59l3.866 3.004c.97-2.884 3.655-4.97 6.817-4.97z" fill="#FE5959"/></g><defs><clipPath id="clip0_300_1292"><path fill="#fff" d="M0 0h24v24H0z"/></clipPath></defs></svg>