<svg width="100" height="100" viewBox="0 0 100 100" fill="none" xmlns="http://www.w3.org/2000/svg">
<path d="M57.6563 35.4688L61.5625 6.40625C57.8125 5.46875 54.0625 3.125 50 3.125C45.9375 3.125 42.1875 5.46875 38.2812 6.5625C34.375 7.5 30 7.34375 26.5625 9.375C23.125 11.4062 20.9375 15.3125 18.125 18.125C15.3125 20.9375 11.4062 23.125 9.375 26.5625C7.34375 30 7.5 34.375 6.40625 38.2812C5.46875 42.1875 3.125 45.9375 3.125 50C3.125 54.0625 5.46875 57.8125 6.5625 61.7188C7.5 65.625 7.34375 70 9.375 73.4375C11.4062 76.875 15.3125 79.0625 18.125 81.875C20.9375 84.6875 22.9688 88.5938 26.5625 90.625C30 92.6562 34.375 92.5 38.2812 93.5938C42.1875 94.5312 45.9375 96.875 50 96.875C54.0625 96.875 57.8125 94.5312 61.7188 93.4375C65.625 92.3438 70 92.5 73.4375 90.4688C76.875 88.4375 79.0625 84.5312 81.875 81.7188C84.6875 78.9062 88.5938 76.875 90.625 73.2812C92.6562 69.8438 92.5 65.4688 93.5938 61.5625C94.5312 57.8125 96.875 54.0625 96.875 50C96.875 45.9375 93.5938 37.3438 93.5938 37.3438L57.6563 35.4688Z" fill="#DDA85F"/>
<path d="M92.8125 35C91.25 35.4688 89.0625 35.3125 86.7188 34.375C83.4375 33.125 81.4062 30.4688 80.7812 27.3438C79.2188 27.8125 75.4688 27.3438 72.9688 25.7812C69.2188 23.4375 68.4375 16.875 68.4375 16.875C64.2188 15.625 61.0938 10.625 61.5625 6.40625C58.125 5.46875 53.75 5.625 50 5.625C46.25 5.625 42.8125 7.8125 39.375 8.75C35.7812 9.6875 31.7187 9.53125 28.5937 11.4063C25.4687 13.2813 23.4375 16.875 20.9375 19.375C18.2812 22.0312 14.6875 23.9062 12.9688 27.0312C11.0938 30.1562 11.25 34.2188 10.3125 37.8125C9.375 41.25 7.1875 44.6875 7.1875 48.4375C7.1875 52.1875 9.375 55.625 10.3125 59.0625C11.25 62.6562 11.0938 66.7188 12.9688 69.8438C14.8438 72.9688 18.4375 75 20.9375 77.5C23.5937 80.1562 25.4687 83.75 28.5937 85.4688C31.7187 87.3438 35.7812 87.1875 39.375 88.125C42.8125 89.0625 46.25 91.25 50 91.25C53.75 91.25 57.1875 89.0625 60.625 88.125C64.2188 87.1875 68.2813 87.3438 71.4062 85.4688C74.5312 83.5938 76.5625 80 79.0625 77.5C81.7188 74.8438 85.3125 72.9688 87.0312 69.8438C88.9062 66.7188 88.75 62.6562 89.6875 59.0625C90.625 55.625 94.375 52.8125 94.8438 49.0625C96.0938 42.9688 92.9688 36.0938 92.8125 35Z" fill="#F2CB7D"/>
<path d="M78.2812 16.875L76.0937 19.0625L74.0625 16.875L76.0937 14.8438L78.2812 16.875Z" fill="#DDA85F"/>
<path d="M87.1875 27.8125L86.25 28.9062L85.1562 27.8125L86.25 26.7188L87.1875 27.8125Z" fill="#DDA85F"/>
<path d="M79.375 20.625L78.2812 21.7187L77.1875 20.625L78.2812 19.5312L79.375 20.625Z" fill="#DDA85F"/>
<path d="M69.6875 11.0937L68.5938 12.1875L67.5 11.0937L68.5938 10L69.6875 11.0937Z" fill="#DDA85F"/>
<path d="M89.375 31.7187L88.2813 32.8125L87.1875 31.7187L88.2813 30.625L89.375 31.7187Z" fill="#DDA85F"/>
<path d="M90.3125 27.8125L89.2187 28.9062L88.125 27.8125L89.2187 26.7188L90.3125 27.8125Z" fill="#DDA85F"/>
<path d="M18.4368 32.1875C16.8743 34.8438 19.218 39.6875 22.343 41.0937C26.8743 42.9688 29.5305 43.2813 32.343 38.4375C33.2805 36.7188 34.5305 32.1875 34.0618 31.0938C33.4368 29.5312 30.7805 26.4062 29.0618 26.4062C24.218 26.5625 19.5305 30.3125 18.4368 32.1875Z" fill="#6D4934"/>
<path d="M19.219 32.1875C18.1253 34.0625 20.9378 39.6875 24.6878 39.2188C29.844 38.5938 29.3753 27.9688 27.1878 27.9688C23.4378 27.9688 20.0003 30.7813 19.219 32.1875Z" fill="#A37F6A"/>
<path d="M70.6247 61.0937C72.8122 60.4687 74.3747 56.5624 73.4372 54.2187C72.0309 50.6249 70.6246 49.0624 66.5621 50.1562C65.1559 50.6249 61.8747 52.3437 61.5622 53.1249C61.0934 54.3749 60.7809 57.4999 61.7184 58.4374C64.3747 61.0937 69.0622 61.5624 70.6247 61.0937Z" fill="#6D4934"/>
<path d="M68.4381 57.3437C70.1568 56.8749 72.8131 51.5624 70.0006 51.2499C65.1568 50.4687 61.4068 52.8124 61.8756 55.4687C62.3443 58.1249 67.1881 57.6562 68.4381 57.3437Z" fill="#A37F6A"/>
<path d="M38.9066 69.5313C38.4378 67.6563 35.0003 66.2501 32.8128 67.1876C29.6878 68.4376 28.2816 69.5313 29.3753 73.1251C29.6878 74.3751 31.2503 77.1876 32.0316 77.3438C33.1253 77.8126 35.7816 77.9688 36.5628 77.1876C38.9066 75.0001 39.2191 70.9376 38.9066 69.5313Z" fill="#6D4934"/>
<path d="M36.2509 68.1251C35.9384 66.7188 29.3759 68.7501 30.0009 71.2501C31.2509 75.4688 31.2509 76.0938 32.5009 75.9376C34.8447 75.3126 36.4072 69.2188 36.2509 68.1251Z" fill="#A37F6A"/>
<path d="M79.8433 39.8438C77.9683 40.3125 76.5621 43.75 77.4996 45.9375C78.7496 49.0625 81.7183 49.5313 84.9996 47.8125C87.8121 46.4063 87.9683 41.4063 87.1871 40.4688C84.8433 38.125 81.2496 39.5313 79.8433 39.8438Z" fill="#6D4934"/>
<path d="M79.0632 41.5626C78.1257 42.6563 77.3444 47.0313 79.6882 46.4063C83.9069 45.1563 86.8757 40.9376 85.0007 40.3126C82.6569 39.5313 80.1569 40.3126 79.0632 41.5626Z" fill="#A37F6A"/>
<path d="M35.5312 25.175L38.625 22.0813L41.7188 25.175L38.625 28.2688L35.5312 25.175Z" fill="#6D4934"/>
<path d="M22.9785 52.3171L26.0707 49.2234L29.1645 52.3156L26.0723 55.4093L22.9785 52.3171Z" fill="#DDA85F"/>
<path d="M54.2168 70.0172L57.3105 66.9235L60.4043 70.0172L57.3105 73.111L54.2168 70.0172Z" fill="#DDA85F"/>
<path d="M50.0605 61.3891L54.259 57.1907L58.4574 61.3891L54.259 65.5875L50.0605 61.3891Z" fill="#DDA85F"/>
<path d="M38.5879 15.3547L42.7863 11.1562L46.9848 15.3547L42.7863 19.5531L38.5879 15.3547Z" fill="#DDA85F"/>
<path d="M64.2539 72.4172L67.3477 69.3235L70.4414 72.4172L67.3477 75.511L64.2539 72.4172Z" fill="#6D4934"/>
<path d="M76.6816 55.0234L79.7754 51.9297L82.8691 55.0234L79.7754 58.1172L76.6816 55.0234Z" fill="#6D4934"/>
<path d="M65.332 38.4954L66.8789 36.9485L68.4258 38.4954L66.8789 40.0422L65.332 38.4954Z" fill="#6D4934"/>
<path d="M21.4473 59.7906L22.9941 58.2438L24.541 59.7906L22.9941 61.3375L21.4473 59.7906Z" fill="#6D4934"/>
</svg>
